HIERARCHY
ROOT Pelvis
{
	OFFSET -0.217368 -24.078917 2.858379
	CHANNELS 6 Xposition Yposition Zposition Zrotation Yrotation Xrotation 
	JOINT Left_hip
	{
		OFFSET 5.858135 -8.228005 -1.766408
		CHANNELS 3 Zrotation Yrotation Xrotation
		JOINT Left_knee
		{
			OFFSET 4.345143 -38.646942 0.803700
			CHANNELS 3 Zrotation Yrotation Xrotation
			JOINT Left_ankle
			{
				OFFSET -1.479033 -42.687447 -3.742800
				CHANNELS 3 Zrotation Yrotation Xrotation
				JOINT Left_foot
				{
					OFFSET 4.105436 -6.028605 12.204244
					CHANNELS 3 Zrotation Yrotation Xrotation
					End Site
					{
						OFFSET 0.000000 0.000000 0.000000
					}
				}
			}
		}
	}
	JOINT Right_hip
	{
		OFFSET -6.030973 -9.051328 -1.354253
		CHANNELS 3 Zrotation Yrotation Xrotation
		JOINT Right_knee
		{
			OFFSET -4.325663 -38.368790 -0.484304
			CHANNELS 3 Zrotation Yrotation Xrotation
			JOINT Right_ankle
			{
				OFFSET 1.905555 -42.004566 -3.456167
				CHANNELS 3 Zrotation Yrotation Xrotation
				JOINT Right_foot
				{
					OFFSET -3.483987 -6.210554 13.032330
					CHANNELS 3 Zrotation Yrotation Xrotation
					End Site
					{
						OFFSET 0.000000 0.000000 0.000000
					}
				}
			}
		}
	}
	JOINT Spine1
	{
		OFFSET 0.443945 12.440353 -3.838522
		CHANNELS 3 Zrotation Yrotation Xrotation
		JOINT Spine2
		{
			OFFSET 0.448844 13.795640 2.682033
			CHANNELS 3 Zrotation Yrotation Xrotation
			JOINT Spine3
			{
				OFFSET -0.226460 5.603239 0.285504
				CHANNELS 3 Zrotation Yrotation Xrotation
				JOINT Neck
				{
					OFFSET -1.339018 21.163553 -3.346758
					CHANNELS 3 Zrotation Yrotation Xrotation
					JOINT Head
					{
						OFFSET 1.011321 8.893734 5.040987
						CHANNELS 3 Zrotation Yrotation Xrotation
						End Site
						{
							OFFSET 0.000000 0.000000 0.000000
						}
					}
				}
				JOINT Left_collar
				{
					OFFSET 7.170247 11.399971 -1.889817
					CHANNELS 3 Zrotation Yrotation Xrotation
					JOINT Left_shoulder
					{
						OFFSET 12.292140 4.520507 -1.904600
						CHANNELS 3 Zrotation Yrotation Xrotation
						JOINT Left_elbow
						{
							OFFSET 25.533188 -1.564902 -2.294648
							CHANNELS 3 Zrotation Yrotation Xrotation
							JOINT Left_wrist
							{
								OFFSET 26.570929 1.269810 -0.737473
								CHANNELS 3 Zrotation Yrotation Xrotation
								JOINT Left_palm
								{
									OFFSET 8.669054 -1.063602 -1.559429
									CHANNELS 3 Zrotation Yrotation Xrotation
									End Site
									{
										OFFSET 0.000000 0.000000 0.000000
									}
								}
							}
						}
					}
				}
				JOINT Right_collar
				{
					OFFSET -8.295364 11.247234 -2.370738
					CHANNELS 3 Zrotation Yrotation Xrotation
					JOINT Right_shoulder
					{
						OFFSET -11.322830 4.685326 -0.847207
						CHANNELS 3 Zrotation Yrotation Xrotation
						JOINT Right_elbow
						{
							OFFSET -26.012751 -1.436928 -3.126872
							CHANNELS 3 Zrotation Yrotation Xrotation
							JOINT Right_wrist
							{
								OFFSET -26.910841 0.679372 -0.602677
								CHANNELS 3 Zrotation Yrotation Xrotation
								JOINT Right_palm
								{
									OFFSET -8.875370 -0.865157 -1.010708
									CHANNELS 3 Zrotation Yrotation Xrotation
									End Site
									{
										OFFSET 0.000000 0.000000 0.000000
									}
								}
							}
						}
					}
				}
			}
		}
	}
}
MOTION
Frames: 5
Frame Time: 0.016667
-0.217368 70.205490 2.858379 0.180562 -9.879468 1.573886 4.015768 0.115639 2.912077 -4.229690 0.461964 -0.649264 4.297705 10.237549 5.135574 0.000000 0.000000 0.000000 -4.108929 -0.048602 2.247445 5.851985 -0.615132 -0.456455 -3.050608 -8.589676 2.928862 0.000000 0.000000 0.000000 6.535253 -0.365975 3.188339 -5.808000 2.155793 -19.918875 -0.532208 11.738700 24.731581 12.468632 -4.937725 -22.038232 0.000000 0.000000 0.000000 -41.998520 -5.111365 -0.720113 -31.110141 -6.083294 -1.968155 2.992279 -14.139711 0.156436 0.000000 0.000000 0.000000 0.000000 0.000000 0.000000 52.575123 -3.827180 -10.215374 31.754204 3.632789 -1.882946 -2.406924 18.853450 0.235103 0.000000 0.000000 0.000000 0.000000 0.000000 0.000000 
-0.669665 70.176651 2.817205 -1.028367 -11.468736 1.254695 4.242422 0.239297 5.345244 -2.706981 0.316233 -1.875738 5.929785 12.803845 2.663207 0.000000 0.000000 0.000000 -2.975092 -0.167975 3.203056 6.205751 -0.621154 -2.448696 -2.638242 -7.373268 2.086296 0.000000 0.000000 0.000000 9.281977 -0.452794 3.080836 -7.632622 2.624048 -20.857252 2.295624 12.788345 27.325256 10.529852 -3.323191 -25.387567 0.000000 0.000000 0.000000 -47.601069 -2.821974 -3.237923 -28.551384 -10.743855 -0.875953 2.917407 -7.577694 0.094822 0.000000 0.000000 0.000000 0.000000 0.000000 0.000000 56.912858 -6.250704 -13.819405 28.257889 6.800916 -1.067365 -5.003090 14.950838 -0.087834 0.000000 0.000000 0.000000 0.000000 0.000000 0.000000 
-1.207726 69.986122 2.729780 -1.257517 -11.998758 1.019822 4.665527 0.167248 4.413305 -3.103036 0.341738 -0.186735 6.229226 13.363228 2.606227 0.000000 0.000000 0.000000 -2.453084 -0.205034 3.333581 6.136796 -0.624814 -1.793131 -2.959603 -7.904421 1.342840 0.000000 0.000000 0.000000 9.204261 -0.593130 4.256028 -7.380929 2.585102 -20.193554 2.046896 11.920887 27.092624 10.198158 -3.116981 -25.647947 0.000000 0.000000 0.000000 -48.184133 -4.315814 -1.929611 -27.989515 -9.854438 -1.047051 3.576165 -7.465300 0.053796 0.000000 0.000000 0.000000 0.000000 0.000000 0.000000 56.665652 -5.308725 -12.762388 28.614015 6.279910 -1.181115 -5.346993 15.223247 -0.130028 0.000000 0.000000 0.000000 0.000000 0.000000 0.000000 
-1.881356 69.922646 2.669998 -1.524488 -12.893673 0.812957 5.333571 0.159088 4.985641 -3.494939 0.383495 -0.011099 7.065743 14.923753 2.446590 0.000000 0.000000 0.000000 -2.204325 -0.264320 3.904999 7.261519 -0.730497 -1.621264 -3.431379 -8.913265 0.918099 0.000000 0.000000 0.000000 10.426240 -0.705798 4.681259 -8.203090 2.822603 -20.027518 2.346261 12.649402 27.920816 10.521235 -2.835377 -28.185026 0.000000 0.000000 0.000000 -50.239357 -4.804321 -1.656574 -26.294628 -11.056019 -0.790723 3.194984 -6.322586 0.067407 0.000000 0.000000 0.000000 0.000000 0.000000 0.000000 59.286935 -5.415425 -13.625762 26.954440 6.403882 -1.107534 -5.980695 15.772140 -0.213221 0.000000 0.000000 0.000000 0.000000 0.000000 0.000000 
-2.618537 69.916069 2.562262 -1.589475 -13.130541 0.453517 5.823323 0.133066 5.014976 -3.654058 0.399717 0.631853 6.988463 14.756765 2.275830 0.000000 0.000000 0.000000 -2.406908 -0.276614 4.207572 7.479332 -0.763678 -1.119796 -3.112858 -8.072707 0.689397 0.000000 0.000000 0.000000 10.427740 -0.825662 5.583377 -7.954244 2.768817 -19.710219 2.222243 12.338599 27.817542 11.396292 -3.141205 -28.711235 0.000000 0.000000 0.000000 -50.801988 -5.426767 -1.103486 -26.143314 -11.310165 -0.742630 3.258832 -7.029711 0.069626 0.000000 0.000000 0.000000 0.000000 0.000000 0.000000 59.914337 -5.329839 -13.716696 25.940602 6.615188 -1.040631 -5.993780 16.741128 -0.236384 0.000000 0.000000 0.000000 0.000000 0.000000 0.000000 
